<svg xmlns="http://www.w3.org/2000/svg" fill="none" viewBox="0 0 260 260">
  <defs>
    <linearGradient id="a" x1="66.63" x2="208.95" y1="45.56" y2="242.4" gradientUnits="userSpaceOnUse">
      <stop offset="0" stop-color="#FF4154"/>
      <stop offset="1" stop-color="#FF5A1A"/>
    </linearGradient>
    <linearGradient id="b" x1="72.19" x2="198.54" y1="29.87" y2="211.39" gradientUnits="userSpaceOnUse">
      <stop offset="0" stop-color="#00C853"/>
      <stop offset="1" stop-color="#00BFA5"/>
    </linearGradient>
  </defs>
  <path fill="url(#a)" d="M129.76 21.34c-61.04 0-110.5 49.46-110.5 110.5 0 61.03 49.46 110.5 110.5 110.5 9.2 0 18.2-.9 26.8-2.61a110.02 110.02 0 0 1-22.3-20.12c-3.13-3.92-5.9-8-8.23-12.1-7.39-12.98-11.23-28.01-11.23-43.9 0-16.73 4.2-32.55 12.35-46.12 7.82-12.98 18.86-23.53 32.1-30.82 12.98-7.03 27.65-10.87 42.98-10.87 11.23 0 22.1 1.95 32.27 5.7V80.3a110.53 110.53 0 0 0-94.24-58.96Z"/>
  <path fill="url(#b)" d="M130.24 21.34c61.04 0 110.5 49.46 110.5 110.5 0 61.03-49.46 110.5-110.5 110.5-9.2 0-18.2-.9-26.8-2.61a110.02 110.02 0 0 0 22.3-20.12c3.13-3.92 5.9-8 8.23-12.1 7.39-12.98 11.23-28.01 11.23-43.9 0-16.73-4.2-32.55-12.35-46.12-7.82-12.98-18.86-23.53-32.1-30.82-12.98-7.03-27.65-10.87-42.98-10.87-11.23 0-22.1 1.95-32.27 5.7V80.3a110.53 110.53 0 0 1 94.24-58.96Z"/>
</svg>